<?xml version="1.0" encoding="UTF-8"?>
<!DOCTYPE svg PUBLIC "-//W3C//DTD SVG 1.1//EN" "http://www.w3.org/Graphics/SVG/1.1/DTD/svg11.dtd">
<!-- Creator: CorelDRAW X8 -->
<svg xmlns="http://www.w3.org/2000/svg" xml:space="preserve" width="57mm" height="55.884mm" version="1.1" style="shape-rendering:geometricPrecision; text-rendering:geometricPrecision; image-rendering:optimizeQuality; fill-rule:evenodd; clip-rule:evenodd"
viewBox="0 0 5700 5588"
 xmlns:xlink="http://www.w3.org/1999/xlink">
 <defs>
  <style type="text/css">
   <![CDATA[
    .fil3 {fill:#313133}
    .fil1 {fill:#323232}
    .fil0 {fill:#CCCCFF}
    .fil2 {fill:#FEFEFE}
   ]]>
  </style>
 </defs>
 <g id="Слой_x0020_1">
  <metadata id="CorelCorpID_0Corel-Layer"/>
  <g id="_2370960358832">
   <path class="fil0" d="M4250 2833c14,-126 -25,-107 -238,-231l-1458 -845c-181,-103 -467,-307 -602,-278 -56,148 -24,1069 -24,1316 0,246 -32,1169 24,1315 133,29 183,-48 298,-94l24 72c107,11 213,-80 301,-129l1608 -926c97,-54 235,-120 67,-200zm-2560 2343c-20,-31 19,3 -35,-37 -1,0 -32,-18 -36,-19 -219,-116 -376,-251 -546,-411 -413,-388 -717,-940 -798,-1542 -124,-917 152,-1587 690,-2235 84,-102 90,-91 163,-155l49 -62c7,-8 6,-7 26,-24l225 -146c1455,-894 3605,-29 3879,1860 105,720 -95,1472 -531,2001 -45,54 -43,63 -99,115 -130,121 -148,165 -335,320 -508,422 -1273,631 -1983,529 -217,-31 -517,-87 -669,-194z"/>
   <path class="fil1" d="M1690 5176c152,107 452,163 669,194 710,102 1475,-107 1983,-529 187,-155 205,-199 335,-320 56,-52 54,-61 99,-115 436,-529 636,-1281 531,-2001 -274,-1889 -2424,-2754 -3879,-1860l-225 146c-20,17 -19,16 -26,24 -273,211 -236,177 -457,432 -118,137 -248,346 -341,545 -630,1360 2,2920 1311,3484zm2298 -4879c61,47 543,323 658,467l222 239c48,55 53,62 94,118 595,795 735,1842 327,2787 -178,411 -258,447 -438,697l-326 334c-44,82 -493,319 -575,360 -772,386 -1578,366 -2320,57 -114,-47 -200,-100 -303,-157 -111,-62 -196,-118 -289,-189 -39,-30 -90,-69 -128,-103l-355 -371c-279,-376 -486,-761 -580,-1316 -101,-590 32,-1192 230,-1595 329,-667 762,-1103 1440,-1394 662,-284 1313,-303 1995,-74 84,28 275,93 348,140z"/>
   <path class="fil2" d="M2248 3790l-1 -1989c143,66 294,165 429,242l853 494c110,66 364,190 438,258l-1719 995z"/>
   <path class="fil3" d="M2247 1801l-136 -78 0 2147 137 -80 1719 -995c-74,-68 -328,-192 -438,-258l-853 -494c-135,-77 -286,-176 -429,-242zm2003 1032c-51,74 -1363,804 -1506,889 -101,60 -437,235 -494,294 -115,46 -165,123 -298,94 -56,-146 -24,-1069 -24,-1315 0,-247 -32,-1168 24,-1316 135,-29 421,175 602,278l1458 845c213,124 252,105 238,231z"/>
   <path class="fil0" d="M4525 4939l326 -334c180,-250 260,-286 438,-697 408,-945 268,-1992 -327,-2787 -41,-56 -46,-63 -94,-118l-222 -239c-115,-144 -597,-420 -658,-467 159,16 669,369 838,535 701,693 1007,1774 688,2754 -44,136 -89,219 -138,340 -120,300 -638,961 -851,1013z"/>
   <path class="fil2" d="M1690 5176c-1309,-564 -1941,-2124 -1311,-3484 93,-199 223,-408 341,-545 221,-255 184,-221 457,-432l-49 62c-73,64 -79,53 -163,155 -538,648 -814,1318 -690,2235 81,602 385,1154 798,1542 170,160 327,295 546,411 4,1 35,19 36,19 54,40 15,6 35,37z"/>
   <path class="fil2" d="M2250 4016c57,-59 393,-234 494,-294 143,-85 1455,-815 1506,-889 168,80 30,146 -67,200l-1608 926c-88,49 -194,140 -301,129l-24 -72z"/>
   <polygon class="fil0" points="2247,1801 2248,3790 2111,3870 2111,1723 "/>
  </g>
 </g>
</svg>
