<?xml version="1.0" encoding="UTF-8"?>
<!DOCTYPE svg PUBLIC "-//W3C//DTD SVG 1.1//EN" "http://www.w3.org/Graphics/SVG/1.1/DTD/svg11.dtd">
<!-- Creator: CorelDRAW X8 -->
<svg xmlns="http://www.w3.org/2000/svg" xml:space="preserve" width="57mm" height="55.884mm" version="1.1" style="shape-rendering:geometricPrecision; text-rendering:geometricPrecision; image-rendering:optimizeQuality; fill-rule:evenodd; clip-rule:evenodd"
viewBox="0 0 5700 5588"
 xmlns:xlink="http://www.w3.org/1999/xlink">
 <defs>
  <style type="text/css">
   <![CDATA[
    .fil3 {fill:#313133}
    .fil1 {fill:#323232}
    .fil0 {fill:#CCCCFF}
    .fil2 {fill:#FEFEFE}
   ]]>
  </style>
 </defs>
 <g id="Слой_x0020_1">
  <metadata id="CorelCorpID_0Corel-Layer"/>
  <g id="_2370957023152">
   <path class="fil0" d="M1331 2833c-14,-126 25,-107 238,-231l1458 -845c181,-103 467,-307 602,-277 56,147 24,1068 24,1315 0,246 32,1169 -24,1315 -133,29 -183,-48 -298,-94l-24 72c-107,11 -213,-80 -301,-129l-1608 -926c-97,-54 -235,-120 -67,-200zm2560 2343c20,-31 -19,3 36,-37 0,0 31,-18 35,-19 220,-116 376,-251 546,-411 413,-388 717,-940 798,-1542 124,-917 -152,-1587 -690,-2235 -84,-102 -90,-91 -163,-155l-49 -62c-7,-8 -5,-7 -26,-24l-225 -146c-1455,-894 -3605,-29 -3879,1860 -105,720 95,1472 531,2001 45,54 43,63 99,115 130,121 148,165 335,320 508,422 1273,631 1983,529 217,-31 517,-87 669,-194z"/>
   <path class="fil1" d="M3891 5176c-152,107 -452,163 -669,194 -710,102 -1475,-107 -1983,-529 -187,-155 -205,-199 -335,-320 -56,-52 -54,-61 -99,-115 -436,-529 -636,-1281 -531,-2001 274,-1889 2424,-2754 3879,-1860l225 146c21,17 19,16 26,24 273,211 236,177 457,432 118,137 248,346 341,545 630,1360 -2,2920 -1311,3484zm-2298 -4879c-61,47 -543,323 -658,467l-222 239c-48,55 -53,62 -94,118 -595,795 -735,1842 -327,2788 178,410 258,446 438,696l327 334c43,82 493,319 574,360 772,386 1578,367 2320,57 114,-47 200,-100 303,-157 111,-62 196,-118 289,-189 39,-30 90,-69 128,-103l355 -371c279,-376 486,-761 580,-1316 101,-590 -32,-1192 -230,-1595 -329,-667 -762,-1103 -1440,-1394 -662,-284 -1312,-303 -1995,-74 -84,28 -275,93 -348,140z"/>
   <path class="fil2" d="M3333 3790l1 -1989c-143,66 -294,166 -429,242l-853 494c-110,66 -364,190 -438,258l1719 995z"/>
   <path class="fil3" d="M3334 1801l136 -78 0 2147 -137 -80 -1719 -995c74,-68 328,-192 438,-258l853 -494c135,-76 286,-176 429,-242zm-2003 1032c51,74 1363,804 1506,889 101,60 437,235 494,294 115,46 165,123 298,94 56,-146 24,-1069 24,-1315 0,-247 32,-1168 -24,-1315 -135,-30 -421,174 -602,277l-1458 845c-213,124 -252,105 -238,231z"/>
   <path class="fil0" d="M1057 4939l-327 -334c-180,-250 -260,-286 -438,-696 -408,-946 -268,-1993 327,-2788 41,-56 46,-63 94,-118l222 -239c115,-144 597,-420 658,-467 -159,16 -669,369 -838,535 -701,693 -1007,1774 -688,2754 44,136 89,219 138,340 120,300 638,961 852,1013z"/>
   <path class="fil2" d="M3891 5176c1309,-564 1941,-2124 1311,-3484 -93,-199 -223,-408 -341,-545 -221,-255 -184,-221 -457,-432l49 62c73,64 79,53 163,155 538,648 814,1318 690,2235 -81,602 -385,1154 -798,1542 -170,160 -326,295 -546,411 -4,1 -35,19 -35,19 -55,40 -16,6 -36,37z"/>
   <path class="fil2" d="M3331 4016c-57,-59 -393,-234 -494,-294 -143,-85 -1455,-815 -1506,-889 -168,80 -30,146 67,200l1608 926c88,49 194,140 301,129l24 -72z"/>
   <polygon class="fil0" points="3334,1801 3333,3790 3470,3870 3470,1723 "/>
  </g>
 </g>
</svg>
