<?xml version="1.0" encoding="UTF-8"?>
<!DOCTYPE svg PUBLIC "-//W3C//DTD SVG 1.1//EN" "http://www.w3.org/Graphics/SVG/1.1/DTD/svg11.dtd">
<!-- Creator: CorelDRAW X8 -->
<svg xmlns="http://www.w3.org/2000/svg" xml:space="preserve" width="53mm" height="53mm" version="1.1" style="shape-rendering:geometricPrecision; text-rendering:geometricPrecision; image-rendering:optimizeQuality; fill-rule:evenodd; clip-rule:evenodd"
viewBox="0 0 5300 5300"
 xmlns:xlink="http://www.w3.org/1999/xlink">
 <defs>
  <style type="text/css">
   <![CDATA[
    .fil1 {fill:none}
    .fil3 {fill:#202020}
    .fil7 {fill:#231C1C}
    .fil8 {fill:#271814}
    .fil10 {fill:#361815}
    .fil5 {fill:#44433D}
    .fil9 {fill:#481A19}
    .fil4 {fill:#606261}
    .fil11 {fill:#F38B64}
    .fil6 {fill:#F7F8F7}
    .fil0 {fill:#F9AA43}
    .fil2 {fill:#FACABB}
   ]]>
  </style>
 </defs>
 <g id="Слой_x0020_1">
  <metadata id="CorelCorpID_0Corel-Layer"/>
  <g id="_2757801908032">
   <rect class="fil0" width="5300" height="5300"/>
   <g id="_2414443942880">
    <rect class="fil1" x="1189" y="840" width="3028" height="3979"/>
    <path class="fil2" d="M3248 3019c-16,137 -212,19 -283,-47 -103,-95 -260,-432 -282,-602 -14,-102 -34,-299 67,-355 -8,20 -23,41 -32,69 -79,243 56,557 213,754 9,12 13,19 22,29 78,84 172,148 295,152l0 0zm-487 -1048c-9,-50 15,-51 59,-63 116,-33 206,-61 316,-27 79,25 203,68 267,113 23,15 51,28 39,73 -16,57 -70,147 -131,79 -108,-122 -110,-166 -323,-186 -170,-16 -158,26 -227,11zm-969 407c19,16 40,71 49,91 28,59 36,80 80,113l10 7c1,1 3,3 5,4 10,6 35,16 48,19 69,14 65,-19 118,-27 7,170 90,417 190,547 47,61 119,158 184,204 15,11 20,17 36,31 101,87 298,184 430,219 114,31 84,51 211,14l11 -7c33,-22 82,-93 111,-124 5,-5 8,-8 13,-14 1,-2 6,-8 7,-9 10,-12 8,-8 21,-21 35,-30 13,-15 37,-57 1,-2 2,-4 3,-5 59,-103 35,-133 70,-169l-19 -10c-40,-11 -81,-23 -101,-45 -21,-22 -35,-70 -16,-106 34,5 23,8 44,27 12,11 20,16 33,26 26,19 43,30 81,35l149 -258c57,-50 31,31 87,-142 20,-67 1,-94 4,-141 1,-29 33,-42 47,-101 14,-61 -1,-2 71,-91 19,-23 52,-69 50,-100 -42,-97 -219,-3 -306,-33 8,-46 23,-41 53,-63 107,-77 161,-60 253,-42l-1 -110c1,-62 5,-55 19,-103 -19,-38 -3,-216 -101,-371 -50,-79 -54,-57 -132,-104 -96,-57 -365,-235 -448,-261 -47,-15 -147,14 -206,20 -316,29 -127,-64 -336,130l-120 114c22,72 43,122 -3,193 -22,33 -86,98 -114,122 -45,37 -86,73 -136,110 -129,96 -45,50 -94,142 -54,-42 -222,-248 -379,-93 -16,16 -22,25 -37,39 -103,96 2,300 24,400l0 0z"/>
    <path class="fil3" d="M1714 1781c-120,267 -219,404 -58,645 24,35 24,43 74,56 27,-55 71,-71 62,-104 -22,-100 -127,-304 -24,-400 15,-14 21,-23 37,-39 157,-155 325,51 379,93 49,-92 -35,-46 94,-142 50,-37 91,-73 136,-110 28,-24 92,-89 114,-122 46,-71 25,-121 3,-193l120 -114c209,-194 20,-101 336,-130 59,-6 159,-35 206,-20 83,26 352,204 448,261 78,47 82,25 132,104 98,155 82,333 101,371 144,-54 82,-96 -4,-167 -2,-73 10,-184 -28,-248 -23,-38 -11,-22 -22,-74l-31 -15c4,-92 15,-169 -69,-270 -100,-119 -350,-276 -496,-323 -50,-16 -169,-6 -187,2 -81,36 36,37 -177,9 -292,-39 -280,51 -380,65 -138,21 -330,179 -420,282 -68,80 -130,175 -180,293 -55,131 7,24 -79,157l-87 133 0 0z"/>
    <path class="fil4" d="M1394 2659c6,17 -8,41 -14,88 -27,216 39,345 70,500 13,62 23,133 32,194 4,26 126,795 86,827 17,19 72,130 94,168 34,56 73,109 113,158 80,98 168,169 321,216 9,-85 -2,-167 4,-252 9,-112 -19,-224 -16,-335 -22,-75 -33,-269 -51,-370 -21,-121 -40,-234 -68,-351 -52,-221 -138,-439 -175,-661 -8,-10 -48,-144 -57,-172 -14,-44 -39,-132 -56,-165l-32 4c-48,22 -82,48 -123,75 -21,14 -40,28 -64,38 -42,18 -37,4 -64,38l0 0z"/>
    <path class="fil5" d="M2394 3860c-2,21 -4,40 -7,62 -1,8 -2,23 -4,31 -11,31 -3,10 -16,22 -12,43 -5,54 -26,103 -14,30 -26,53 -41,87 -16,39 -62,145 -80,166 -1,151 1,194 -71,297 -27,39 -14,41 -28,66l-17 21c-2,-48 12,-117 -4,-157 -6,85 5,167 -4,252 99,27 215,-17 284,-60 55,-33 56,-32 72,-107 32,-153 157,-647 135,-727 -37,9 -61,66 -85,83 -22,29 -27,44 -54,65 -7,-37 -10,-82 -16,-121 -5,-40 0,-96 -38,-83l0 0z"/>
    <path class="fil5" d="M1568 4268c40,-32 -82,-801 -86,-827 -9,-61 -19,-132 -32,-194 -31,-155 -97,-284 -70,-500 6,-47 20,-71 14,-88 -35,8 -65,33 -102,50 -33,15 -73,24 -101,40 -19,75 115,695 141,802 29,128 62,253 103,371l133 346 0 0z"/>
    <path class="fil6" d="M2084 4223l7 -3c146,-81 197,-154 230,-289l7 -21c40,16 45,23 39,65 13,-12 5,9 16,-22 2,-8 3,-23 4,-31 3,-22 5,-41 7,-62l-49 3c-11,48 -2,30 -42,42 -21,-84 -148,-306 -196,-411l-192 -400c-22,-47 -41,-89 -64,-138 -12,-24 -21,-40 -33,-66 -32,-69 -20,-63 -28,-49 37,222 123,440 175,661 28,117 47,230 68,351 18,101 29,295 51,370z"/>
    <path class="fil7" d="M2761 1971c69,15 57,-27 227,-11 213,20 215,64 323,186 61,68 115,-22 131,-79 12,-45 -16,-58 -39,-73 -64,-45 -188,-88 -267,-113 -110,-34 -200,-6 -316,27 -44,12 -68,13 -59,63z"/>
    <path class="fil8" d="M3248 3019c-123,-4 -217,-68 -295,-152 -9,-10 -13,-17 -22,-29 -157,-197 -292,-511 -213,-754 9,-28 24,-49 32,-69 -101,56 -81,253 -67,355 22,170 179,507 282,602 71,66 267,184 283,47l0 0z"/>
    <path class="fil9" d="M2091 4220c23,14 18,-11 18,82 -16,-20 -2,-37 10,-51 2,54 -1,29 16,76l3 -17c14,41 37,23 82,21 18,-21 64,-127 80,-166 15,-34 27,-57 41,-87 21,-49 14,-60 26,-103 6,-42 1,-49 -39,-65l-7 21c-33,135 -84,208 -230,289l0 0z"/>
    <path class="fil10" d="M2100 4558c16,40 2,109 4,157l17 -21c14,-25 1,-27 28,-66 72,-103 70,-146 71,-297 -45,2 -68,20 -82,-21l-3 17c-17,-47 -14,-22 -16,-76 -12,14 -26,31 -10,51 0,-93 5,-68 -18,-82l-7 3c-3,111 25,223 16,335l0 0z"/>
    <path class="fil8" d="M3448 3121c-38,-5 -55,-16 -81,-35 -13,-10 -21,-15 -33,-26 -21,-19 -10,-22 -44,-27 -19,36 -5,84 16,106 20,22 61,34 101,45 208,12 409,-157 556,-276 31,-26 52,-53 83,-77l171 -118c14,-11 8,-6 19,-16 -57,16 -153,89 -194,121 -96,76 -436,383 -594,303l0 0z"/>
    <path class="fil7" d="M3856 2288c32,10 44,-22 46,-65 2,-47 -22,-50 -46,-73 -92,-18 -146,-35 -253,42 -30,22 -45,17 -53,63 87,30 264,-64 306,33l0 0z"/>
    <path class="fil11" d="M2292 3132c-100,-130 -183,-377 -190,-547 -53,8 -49,40 -118,27 -13,-3 -38,-13 -48,-19l-5 -4 -10 -7c-44,-33 -52,-54 -80,-113 -9,-20 -30,-75 -49,-91 7,25 -38,61 -72,101 -7,-2 -14,-4 -19,-6l-24 31c2,4 4,8 6,12 16,39 37,113 50,153 9,28 49,162 57,172 8,-14 -4,-20 28,49l33 66 64 138 192 400c48,105 175,327 196,411 40,-12 31,6 42,-42l49 -3c7,-2 13,-2 18,0 12,-7 59,-32 71,-36 82,-31 16,-15 110,-75 95,-61 35,-28 76,-60l5 -3 11 -7c31,-18 38,-12 70,-20 141,-27 117,-65 220,-63 -10,-3 -21,-6 -33,-10 -132,-35 -329,-132 -430,-219 -16,-14 -21,-20 -36,-31 -65,-46 -137,-143 -184,-204l0 0z"/>
   </g>
  </g>
 </g>
</svg>
