<?xml version="1.0" encoding="UTF-8"?>
<!DOCTYPE svg PUBLIC "-//W3C//DTD SVG 1.1//EN" "http://www.w3.org/Graphics/SVG/1.1/DTD/svg11.dtd">
<!-- Creator: CorelDRAW X8 -->
<svg xmlns="http://www.w3.org/2000/svg" xml:space="preserve" width="90.12mm" height="76.184mm" version="1.1" style="shape-rendering:geometricPrecision; text-rendering:geometricPrecision; image-rendering:optimizeQuality; fill-rule:evenodd; clip-rule:evenodd"
viewBox="0 0 9012 7618"
 xmlns:xlink="http://www.w3.org/1999/xlink">
 <defs>
  <style type="text/css">
   <![CDATA[
    .fil0 {fill:#F8AB43}
    .fil6 {fill:#F9B353}
    .fil5 {fill:#FCD6A3}
    .fil2 {fill:#FEFEFF}
    .fil4 {fill:#FFFDFC}
    .fil3 {fill:#FFFEFD}
    .fil1 {fill:white}
   ]]>
  </style>
 </defs>
 <g id="Слой_x0020_1">
  <metadata id="CorelCorpID_0Corel-Layer"/>
  <g id="_2370826233904">
   <path class="fil0" d="M1066 7252l-121 -1 -3 -622 120 -10c89,-277 159,-542 213,-844 61,-343 50,-644 81,-987l612 -1 4 1835 165 1 4 628 -133 -2 -16 -113c0,-39 0,-79 0,-118 0,-84 -1,-169 1,-254l-907 3 -1 447c-7,63 -2,19 -19,38zm1947 -496l-138 3 467 -1966 144 -7 487 1973 -138 1c-35,-62 -158,-613 -178,-712l-461 1c-21,30 -84,321 -93,357 -14,63 -65,307 -90,350zm3953 2l-168 0c-1,-607 -10,-1309 0,-1905l2 -61 132 1c20,212 2,977 2,1286 0,128 -16,310 -5,427l183 -424c106,-243 458,-1119 547,-1291l176 1c17,124 13,1755 4,1963 -80,9 -71,15 -138,0 -14,-456 -8,-1237 5,-1717 -53,72 -137,314 -185,422 -65,148 -118,286 -182,430 -54,122 -333,821 -373,868zm-1792 -1814c-53,270 -55,1253 -182,1627 -76,227 -272,246 -368,180l-1 -118c160,1 218,52 275,-273 32,-181 90,-837 106,-1041 7,-100 26,-466 48,-527 125,-13 486,-7 636,-4 16,244 10,1669 2,1972l-140 -5 -2 -1828c-121,3 -323,-17 -374,17zm230 -1043c114,-363 171,-671 171,-1096l382 5 0 1104 100 1 0 377 -84 -1 0 -296 -563 -3 0 297 -83 -2 1 -368 76 -18zm-2571 -1096l86 3 0 518c229,0 449,-7 440,340 -9,346 -276,335 -526,324l0 -1185zm5593 0l92 2 292 1185 -70 0c-42,-12 -92,-323 -124,-425l-281 -1 -101 425 -93 0 285 -1186zm-3653 0l93 2 291 1185 -69 0c-43,-12 -92,-323 -125,-425l-280 -1 -102 425 -93 0 285 -1186zm-3544 1l91 0 291 1187 -88 -4 -106 -422 -281 -1 -101 426 -93 0 287 -1186zm5378 -16c545,-155 555,1093 167,1205 -309,90 -420,-248 -430,-512 -8,-236 -9,-615 263,-693zm809 19c264,-19 507,-12 507,322 0,415 -258,355 -418,381l0 481 -89 -7 0 -1177zm-3705 2c60,-13 254,-12 316,-2 90,16 151,66 182,131 37,75 39,196 14,279 -35,113 -73,104 -156,159 141,27 196,126 196,288 0,345 -248,351 -552,320l0 -1175zm-1839 1106c93,-157 124,-857 145,-1104 62,-18 319,-13 393,-5l0 1182 -86 0 0 -1109 -229 10c-15,236 -36,477 -61,710 -17,152 -24,384 -183,404 -99,12 -98,-7 -91,-84l112 -4zm-1161 56c-77,35 -183,46 -267,18 -387,-126 -381,-1158 53,-1210 89,-11 180,2 241,50l-28 67c-176,-46 -269,-73 -360,74 -126,204 -130,648 3,836 99,139 167,129 363,89l-5 76zm6030 -2104c58,79 52,144 11,252 -23,59 -94,179 -183,131 -93,-50 -45,-412 172,-383zm-3358 683c-14,-57 44,-273 58,-351 15,-79 49,-297 71,-346 50,-1 48,-10 56,44 100,-106 214,5 113,243 -62,143 -181,128 -181,126 -2,-3 -6,1 -9,2 -52,137 -15,283 -108,282zm-359 -679c121,-57 139,90 120,176 -18,84 -62,179 -122,204 -200,82 -143,-311 2,-380zm1571 328c51,-2 77,-32 101,-27 40,7 18,47 -15,67 -260,155 -170,-473 58,-368 31,143 -48,198 -153,234l9 94zm596 -38c14,25 14,32 2,54 -19,37 -99,73 -152,21 -72,-71 0,-255 59,-334 78,-104 182,-11 159,36 -23,49 -51,-1 -85,-23 -43,66 -124,156 -92,281 83,12 59,-47 109,-35zm316 -244c6,-44 15,-45 60,-56 29,-8 59,-9 94,-10 63,-1 172,-15 146,53 -40,20 -53,10 -106,8 -13,35 2,10 -8,39 -12,36 -10,18 -21,40 -33,67 -28,211 -84,275 -44,-17 -43,-13 -30,-61l70 -293c-46,4 -83,19 -121,5zm-1509 123c-25,-78 16,-152 72,-174 32,16 0,-4 31,32l21 23c56,-16 26,-14 60,-40 27,-21 -13,-13 32,-15 84,-3 -10,74 -38,156 -11,29 -22,57 -30,87 -28,96 4,93 7,97 27,-41 27,-81 94,-76 4,52 -46,145 -146,133 -52,-85 -6,-183 24,-282 -44,-4 -23,7 -49,-15 -53,49 1,80 -78,74zm-2119 -119c4,-48 -4,-47 60,-61 63,-14 237,-32 249,39 -43,27 -52,18 -114,11l-30 79c-47,91 -20,263 -113,275 -16,-39 45,-288 68,-351l-120 8zm4292 -71c3,2 7,3 9,4 58,17 98,4 93,112 -15,317 -376,538 -186,-186 27,-103 50,-267 176,-253 69,115 -39,240 -92,323zm-3769 235c0,-44 -16,-1 4,-71 7,-23 12,-58 18,-89 17,-88 53,-247 92,-324 27,-53 37,-87 116,-73 88,120 -62,256 -101,345 39,-12 39,-16 87,-5 110,200 -216,642 -216,217zm2499 -1266c-37,-79 -28,-122 -6,-218 28,-124 14,-171 84,-168 17,56 -2,72 -12,128 193,-76 155,320 -66,258zm-1585 -64c-67,112 -180,106 -157,-77 6,-51 27,-103 38,-145 19,-73 0,-93 69,-104 19,68 -46,215 -48,332 140,-33 119,-326 236,-329 9,61 -21,131 -33,196 -17,89 -11,171 -36,190 -43,28 -46,-32 -69,-63zm2774 -6c-49,112 -181,112 -159,-52 9,-65 41,-247 96,-268 67,67 -67,222 -26,327 43,-9 17,11 49,-30 88,-111 84,-286 173,-295 22,39 -19,152 -28,206 -26,147 -1,152 -32,188 -55,-1 -50,-43 -73,-76zm-2173 -324c98,24 50,156 -4,197 12,32 23,53 26,97 44,-22 117,-35 62,30 -48,57 -56,-9 -77,109 -14,84 -43,222 -100,250 -124,61 -174,-83 -121,-173 29,-49 92,-102 136,-137 36,-30 53,-46 29,-115 -56,8 -43,35 -96,31 -28,-2 -16,-2 -31,-12 -12,-64 92,-54 150,-140 105,-155 -117,-34 -129,-40 -79,-39 89,-114 155,-97zm-1312 270c-186,259 -247,62 -207,10 65,20 18,22 68,58 50,-21 70,-68 106,-124 44,-69 11,-85 -14,-159 -58,13 -28,30 -83,19 -22,-77 117,-143 156,27 2,-4 4,-8 6,-11 1,-3 4,-7 6,-11 25,-56 8,-69 57,-83 33,38 17,30 14,84 91,-70 80,-86 154,-74 18,26 29,36 24,84l-74 -21c-36,36 -49,48 -87,91 7,89 11,135 61,179 78,-16 51,-52 107,-39 16,60 -125,224 -218,-57 -21,75 -9,136 -67,160 -38,-52 -3,-67 -9,-133zm1700 127c-44,-20 -36,-23 -26,-79l73 -314c88,12 36,33 25,184 209,-2 68,-198 209,-179 6,70 -61,217 -56,296 5,76 28,-4 20,87 -40,15 -56,6 -90,-14l17 -139 -120 8c-5,68 -6,117 -52,150zm-4227 6716l8845 0 0 -7462 -8845 0 0 7462z"/>
   <path class="fil1" d="M78 78l8845 0 0 7462 -8845 0 0 -7462zm-78 7540l9001 0 0 -7618 -9001 0 0 7618z"/>
   <path class="fil2" d="M1495 4927l334 1 -1 1694 -609 -2c4,-77 80,-286 102,-380 33,-142 62,-268 85,-412 47,-282 88,-616 89,-901zm-429 2325l8 -487c58,-23 864,-24 930,-3l4 487 133 2 -4 -628 -165 -1 -4 -1835 -612 1c-31,343 -20,644 -81,987 -54,302 -124,567 -213,844l-120 10 3 622 121 1z"/>
   <path class="fil3" d="M6966 6758c40,-47 319,-746 373,-868 64,-144 117,-282 182,-430 48,-108 132,-350 185,-422 -13,480 -19,1261 -5,1717 67,15 58,9 138,0 9,-208 13,-1839 -4,-1963l-176 -1c-89,172 -441,1048 -547,1291l-183 424c-11,-117 5,-299 5,-427 0,-309 18,-1074 -2,-1286l-132 -1 -2 61c-10,596 -1,1298 0,1905l168 0z"/>
   <path class="fil0" d="M1495 4927c-1,285 -42,619 -89,901 -23,144 -52,270 -85,412 -22,94 -98,303 -102,380l609 2 1 -1694 -334 -1z"/>
   <path class="fil2" d="M5174 4944c51,-34 253,-14 374,-17l2 1828 140 5c8,-303 14,-1728 -2,-1972 -150,-3 -511,-9 -636,4 -22,61 -41,427 -48,527 -16,204 -74,860 -106,1041 -57,325 -115,274 -275,273l1 118c96,66 292,47 368,-180 127,-374 129,-1357 182,-1627z"/>
   <path class="fil2" d="M3220 5908c10,-117 67,-317 97,-440 32,-138 78,-302 96,-447l207 884 -400 3zm-207 848c25,-43 76,-287 90,-350 9,-36 72,-327 93,-357l461 -1c20,99 143,650 178,712l138 -1 -487 -1973 -144 7 -467 1966 138 -3z"/>
   <path class="fil0" d="M6648 2863c-203,49 -218,348 -214,568 3,205 48,537 293,492 202,-37 219,-348 218,-570 -1,-217 -54,-550 -297,-490z"/>
   <path class="fil3" d="M5664 2886l204 -3 0 1028 -378 3c107,-352 158,-640 174,-1028zm-260 1015l-76 18 -1 368 83 2 0 -297 563 3 0 296 84 1 0 -377 -100 -1 0 -1104 -382 -5c0,425 -57,733 -171,1096z"/>
   <path class="fil4" d="M3801 3421c190,-31 338,-2 367,172 49,302 -120,344 -367,318l0 -490zm0 -535c171,-28 327,-6 346,168 20,179 -45,285 -220,285l-79 1 -47 -5 0 -449zm-90 1100c304,31 552,25 552,-320 0,-162 -55,-261 -196,-288 83,-55 121,-46 156,-159 25,-83 23,-204 -14,-279 -31,-65 -92,-115 -182,-131 -62,-10 -256,-11 -316,2l0 1175z"/>
   <path class="fil0" d="M5664 2886c-16,388 -67,676 -174,1028l378 -3 0 -1028 -204 3z"/>
   <path class="fil3" d="M6648 2863c243,-60 296,273 297,490 1,222 -16,533 -218,570 -245,45 -290,-287 -293,-492 -4,-220 11,-519 214,-568zm-41 -73c-272,78 -271,457 -263,693 10,264 121,602 430,512 388,-112 378,-1360 -167,-1205z"/>
   <path class="fil3" d="M1872 3917l-112 4c-7,77 -8,96 91,84 159,-20 166,-252 183,-404 25,-233 46,-474 61,-710l229 -10 0 1109 86 0 0 -1182c-74,-8 -331,-13 -393,5 -21,247 -52,947 -145,1104z"/>
   <path class="fil3" d="M8474 2957l123 525 -244 1 121 -526zm-333 1034l93 0 101 -425 281 1c32,102 82,413 124,425l70 0 -292 -1185 -92 -2 -285 1186z"/>
   <path class="fil3" d="M4701 3483c13,-90 40,-187 60,-274l61 -252 122 525 -243 1zm-213 508l93 0 102 -425 280 1c33,102 82,413 125,425l69 0 -291 -1185 -93 -2 -285 1186z"/>
   <path class="fil3" d="M1272 2948l124 535 -243 0 119 -535zm-330 1044l93 0 101 -426 281 1 106 422 88 4 -291 -1187 -91 0 -287 1186z"/>
   <path class="fil4" d="M7505 3426l0 -540c453,-73 341,436 250,499 -57,40 -167,53 -250,41zm-89 560l89 7 0 -481c160,-26 418,34 418,-381 0,-334 -243,-341 -507,-322l0 1177z"/>
   <path class="fil3" d="M2919 3913l0 -508c219,0 347,2 349,248 1,246 -124,260 -349,260zm-86 77c250,11 517,22 526,-324 9,-347 -211,-340 -440,-340l0 -518 -86 -3 0 1185z"/>
   <path class="fil0" d="M3220 5908l400 -3 -207 -884c-18,145 -64,309 -96,447 -30,123 -87,323 -97,440z"/>
   <path class="fil0" d="M3801 3911c247,26 416,-16 367,-318 -29,-174 -177,-203 -367,-172l0 490z"/>
   <path class="fil0" d="M7505 3426c83,12 193,-1 250,-41 91,-63 203,-572 -250,-499l0 540z"/>
   <path class="fil3" d="M711 3973l5 -76c-196,40 -264,50 -363,-89 -133,-188 -129,-632 -3,-836 91,-147 184,-120 360,-74l28 -67c-61,-48 -152,-61 -241,-50 -434,52 -440,1084 -53,1210 84,28 190,17 267,-18z"/>
   <path class="fil0" d="M2919 3913c225,0 350,-14 349,-260 -2,-246 -130,-248 -349,-248l0 508z"/>
   <path class="fil0" d="M3801 3335l47 5 79 -1c175,0 240,-106 220,-285 -19,-174 -175,-196 -346,-168l0 449z"/>
   <path class="fil3" d="M6091 2087c0,-74 54,-143 120,-158 -1,83 -23,241 -111,264l-9 -106zm100 -447c7,-14 10,-15 18,-26 2,-2 8,-2 9,-8 1,-6 6,-6 9,-8 -9,126 -56,133 -76,182l40 -140zm-20 212c53,-83 161,-208 92,-323 -126,-14 -149,150 -176,253 -190,724 171,503 186,186 5,-108 -35,-95 -93,-112 -2,-1 -6,-2 -9,-4z"/>
   <path class="fil3" d="M2479 2196c-15,-24 -2,21 -13,-32 -4,-15 -5,-35 -5,-51 -1,-73 5,-89 56,-144 28,-31 19,-31 66,-39 -3,88 -30,227 -104,266zm41 -422c12,-62 31,-142 73,-178 9,72 -38,133 -73,178zm-118 313c0,425 326,-17 216,-217 -48,-11 -48,-7 -87,5 39,-89 189,-225 101,-345 -79,-14 -89,20 -116,73 -39,77 -75,236 -92,324 -6,31 -11,66 -18,89 -20,70 -4,27 -4,71z"/>
   <path class="fil3" d="M2475 501c55,11 25,-6 83,-19 25,74 58,90 14,159 -36,56 -56,103 -106,124 -50,-36 -3,-38 -68,-58 -40,52 21,249 207,-10 6,66 -29,81 9,133 58,-24 46,-85 67,-160 93,281 234,117 218,57 -56,-13 -29,23 -107,39 -50,-44 -54,-90 -61,-179 38,-43 51,-55 87,-91l74 21c5,-48 -6,-58 -24,-84 -74,-12 -63,4 -154,74 3,-54 19,-46 -14,-84 -49,14 -32,27 -57,83 -2,4 -5,8 -6,11 -2,3 -4,7 -6,11 -39,-170 -178,-104 -156,-27z"/>
   <path class="fil3" d="M3757 1055c-56,-88 70,-178 106,-196 -8,48 -18,78 -33,127 -20,61 -11,73 -73,69zm-16 -351c15,10 3,10 31,12 53,4 40,-23 96,-31 24,69 7,85 -29,115 -44,35 -107,88 -136,137 -53,90 -3,234 121,173 57,-28 86,-166 100,-250 21,-118 29,-52 77,-109 55,-65 -18,-52 -62,-30 -3,-44 -14,-65 -26,-97 54,-41 102,-173 4,-197 -66,-17 -234,58 -155,97 12,6 234,-115 129,40 -58,86 -162,76 -150,140z"/>
   <path class="fil3" d="M3528 2198c-32,-107 46,-240 121,-275 25,97 -22,284 -121,275zm-145 354c93,1 56,-145 108,-282 3,-1 7,-5 9,-2 0,2 119,17 181,-126 101,-238 -13,-349 -113,-243 -8,-54 -6,-45 -56,-44 -22,49 -56,267 -71,346 -14,78 -72,294 -58,351z"/>
   <path class="fil0" d="M4701 3483l243 -1 -122 -525 -61 252c-20,87 -47,184 -60,274z"/>
   <polygon class="fil0" points="1153,3483 1396,3483 1272,2948 "/>
   <polygon class="fil0" points="8353,3483 8597,3482 8474,2957 "/>
   <path class="fil3" d="M3316 757c23,31 26,91 69,63 25,-19 19,-101 36,-190 12,-65 42,-135 33,-196 -117,3 -96,296 -236,329 2,-117 67,-264 48,-332 -69,11 -50,31 -69,104 -11,42 -32,94 -38,145 -23,183 90,189 157,77z"/>
   <path class="fil3" d="M6090 751c23,33 18,75 73,76 31,-36 6,-41 32,-188 9,-54 50,-167 28,-206 -89,9 -85,184 -173,295 -32,41 -6,21 -49,30 -41,-105 93,-260 26,-327 -55,21 -87,203 -96,268 -22,164 110,164 159,52z"/>
   <path class="fil3" d="M4305 824c46,-33 47,-82 52,-150l120 -8 -17 139c34,20 50,29 90,14 8,-91 -15,-11 -20,-87 -5,-79 62,-226 56,-296 -141,-19 0,177 -209,179 11,-151 63,-172 -25,-184l-73 314c-10,56 -18,59 26,79z"/>
   <path class="fil3" d="M2972 2194c-18,-28 -22,-39 -15,-94 9,-80 42,-164 128,-175 13,57 0,112 -22,173 -35,98 -82,101 -84,97 -1,-2 -5,0 -7,-1zm52 -321c-145,69 -202,462 -2,380 60,-25 104,-120 122,-204 19,-86 1,-233 -120,-176z"/>
   <path class="fil3" d="M6604 2201c-34,-60 -19,-268 114,-274 4,95 -25,256 -114,274zm137 -332c-217,-29 -265,333 -172,383 89,48 160,-72 183,-131 41,-108 47,-173 -11,-252z"/>
   <path class="fil3" d="M4603 2037c17,-60 34,-99 80,-116 8,80 -24,92 -80,116zm-8 164l-9 -94c105,-36 184,-91 153,-234 -228,-105 -318,523 -58,368 33,-20 55,-60 15,-67 -24,-5 -50,25 -101,27z"/>
   <path class="fil3" d="M3998 2042c79,6 25,-25 78,-74 26,22 5,11 49,15 -30,99 -76,197 -24,282 100,12 150,-81 146,-133 -67,-5 -67,35 -94,76 -3,-4 -35,-1 -7,-97 8,-30 19,-58 30,-87 28,-82 122,-159 38,-156 -45,2 -5,-6 -32,15 -34,26 -4,24 -60,40l-21 -23c-31,-36 1,-16 -31,-32 -56,22 -97,96 -72,174z"/>
   <path class="fil3" d="M4940 757c-12,-34 -16,-55 9,-85 10,-12 5,-3 15,-12 60,-61 12,-31 61,-51 3,41 8,134 -36,155 -51,23 -49,-6 -49,-7zm-39 64c221,62 259,-334 66,-258 10,-56 29,-72 12,-128 -70,-3 -56,44 -84,168 -22,96 -31,139 6,218z"/>
   <path class="fil3" d="M5191 2163c-50,-12 -26,47 -109,35 -32,-125 49,-215 92,-281 34,22 62,72 85,23 23,-47 -81,-140 -159,-36 -59,79 -131,263 -59,334 53,52 133,16 152,-21 12,-22 12,-29 -2,-54z"/>
   <path class="fil4" d="M1879 1923l120 -8c-23,63 -84,312 -68,351 93,-12 66,-184 113,-275l30 -79c62,7 71,16 114,-11 -12,-71 -186,-53 -249,-39 -64,14 -56,13 -60,61z"/>
   <path class="fil4" d="M5507 1919c38,14 75,-1 121,-5l-70 293c-13,48 -14,44 30,61 56,-64 51,-208 84,-275 11,-22 9,-4 21,-40 10,-29 -5,-4 8,-39 53,2 66,12 106,-8 26,-68 -83,-54 -146,-53 -35,1 -65,2 -94,10 -45,11 -54,12 -60,56z"/>
   <path class="fil5" d="M1066 7252c17,-19 12,25 19,-38l1 -447 907 -3c-2,85 -1,170 -1,254 0,39 0,79 0,118l16 113 -4 -487c-66,-21 -872,-20 -930,3l-8 487z"/>
   <path class="fil0" d="M2972 2194c2,1 6,-1 7,1 2,4 49,1 84,-97 22,-61 35,-116 22,-173 -86,11 -119,95 -128,175 -7,55 -3,66 15,94z"/>
   <path class="fil0" d="M6604 2201c89,-18 118,-179 114,-274 -133,6 -148,214 -114,274z"/>
   <path class="fil0" d="M3528 2198c99,9 146,-178 121,-275 -75,35 -153,168 -121,275z"/>
   <path class="fil0" d="M2479 2196c74,-39 101,-178 104,-266 -47,8 -38,8 -66,39 -51,55 -57,71 -56,144 0,16 1,36 5,51 11,53 -2,8 13,32z"/>
   <path class="fil0" d="M6091 2087l9 106c88,-23 110,-181 111,-264 -66,15 -120,84 -120,158z"/>
   <path class="fil0" d="M3757 1055c62,4 53,-8 73,-69 15,-49 25,-79 33,-127 -36,18 -162,108 -106,196z"/>
   <path class="fil0" d="M4940 757c0,1 -2,30 49,7 44,-21 39,-114 36,-155 -49,20 -1,-10 -61,51 -10,9 -5,0 -15,12 -25,30 -21,51 -9,85z"/>
   <path class="fil0" d="M4603 2037c56,-24 88,-36 80,-116 -46,17 -63,56 -80,116z"/>
   <path class="fil6" d="M2520 1774c35,-45 82,-106 73,-178 -42,36 -61,116 -73,178z"/>
   <path class="fil6" d="M6151 1780c20,-49 67,-56 76,-182 -3,2 -8,2 -9,8 -1,6 -7,6 -9,8 -8,11 -11,12 -18,26l-40 140z"/>
  </g>
 </g>
</svg>
